<?xml version="1.0" encoding="utf-8"?><svg xmlns="http://www.w3.org/2000/svg" width="1000px" height="1000px">
<g>
	<path fill="#EE4854" d="M626.213,416.063c10.051-36.109,6.449-54.297-11.207-57.811c2.713,12.274,5.736,24.859-7.158,33.352
		c-6.761,4.447-12.096,2.757-24.059-6.448c-5.515,11.34-3.646,22.635-1.112,34.73c-17.164-2.979-30.684-10.095-36.952-26.681
		c-6.468-15.069-2.926-32.568,8.893-43.936c4.129-4.192,8.592-8.044,13.34-11.518c19.301-14.497,23.035-28.549,12.852-50.339
		c-0.455-1.248-0.826-2.525-1.11-3.824c21.459,3.261,41.753,11.871,59.009,25.037c37.623,30.772,33.088,86.047-8.448,106.371
		C628.856,415.104,627.484,415.464,626.213,416.063z"/>
</g>
</svg>
