<svg xmlns="http://www.w3.org/2000/svg" xmlns:xlink="http://www.w3.org/1999/xlink" viewBox="0 0 77 77"><defs><path id="ttep0h70ta" d="M0.045 0.194L4.953 0.194 4.953 19.995 0.045 19.995z"/><path id="rfvffhja4c" d="M0 0.231L74.796 0.231 74.796 76.699 0 76.699z"/></defs><g fill="black" fill-rule="evenodd"><mask id="saqf5ngkvd" fill="#fff"><use xlink:href="#rfvffhja4c"/></mask><path fill="#F37422" d="M0 37.422c0 8.757 3.06 16.786 8.16 23.139 2.064 2.566 3.13 6.663 1.249 9.083-1.343 1.732-2.826 2.918-4.428 3.128-5.2.695 1.917 6.892 14.125 2.162 3.075-1.193 7.861-1.67 11.101-1.02 2.322.459 4.732.709 7.195.709 20.651 0 37.394-16.654 37.394-37.192 0-20.547-16.743-37.2-37.402-37.2C16.744.231 0 16.884 0 37.422z" mask="url(#saqf5ngkvd)"/><path fill="#FFF" d="M35.967 40.642c-4.89-.02-8.858-3.965-8.856-8.808.002-4.857 3.991-8.804 8.896-8.802h.035c4.89.02 8.858 3.963 8.856 8.808-.002 4.855-3.991 8.805-8.897 8.802h-.034zm10.059 3.52c3.642-2.906 5.973-7.347 5.974-12.32.003-8.732-7.164-15.839-15.985-15.842h-.005c-8.82-.003-15.998 7.099-16.001 15.832L20 56.474c0 1.943 1.585 3.517 3.547 3.517 1.963.001 3.554-1.571 3.555-3.515l.004-11.484c2.543 1.69 5.603 2.681 8.893 2.683v.002l.02-.002c4.9.02 8.872 3.963 8.87 8.808 0 1.943 1.59 3.516 3.553 3.517 1.962 0 3.549-1.572 3.55-3.515.001-4.975-2.33-9.415-5.966-12.323z"/></g></svg>