<svg viewBox="0 0 114.935 12.52" xmlns="http://www.w3.org/2000/svg"><g id="svgGroup" font-size="9pt" fill="white">
    <path d="M 21.375 1.128 A 1.669 1.669 0 0 0 21.368 1.074 A 3.577 3.577 0 0 1 21.299 1.044 A 3.195 3.195 0 0 1 20.695 0.693 A 1.858 1.858 0 0 1 20.197 0.137 A 0.567 0.567 0 0 1 20.198 0.153 Q 20.21 0.296 20.125 0.253 A 0.187 0.187 0 0 1 20.109 0.244 A 0.166 0.166 0 0 0 20.107 0.243 Q 20.001 0.177 19.923 0.352 A 0.326 0.326 0 0 1 19.792 0.322 Q 19.695 0.279 19.591 0.176 A 30.324 30.324 0 0 1 19.364 0.218 Q 19.028 0.279 18.724 0.327 A 17.895 17.895 0 0 1 18.126 0.41 A 52.677 52.677 0 0 0 17.807 0.45 A 47.089 47.089 0 0 0 16.886 0.576 Q 16.29 0.664 15.675 0.801 Q 15.329 0.878 14.93 0.992 A 19.135 19.135 0 0 0 14.279 1.191 A 34.744 34.744 0 0 1 13.859 1.284 A 29.867 29.867 0 0 1 13.458 1.367 A 5.941 5.941 0 0 0 13.174 1.431 A 4.933 4.933 0 0 0 12.736 1.563 A 2.846 2.846 0 0 0 12.12 1.865 Q 11.837 2.051 11.642 2.344 Q 11.74 2.676 11.779 2.998 A 8.969 8.969 0 0 0 11.876 3.623 Q 11.935 3.926 12.062 4.229 A 1.46 1.46 0 0 0 12.204 4.488 A 1.769 1.769 0 0 0 12.462 4.785 A 8.611 8.611 0 0 1 12.341 5.097 A 6.757 6.757 0 0 1 12.179 5.459 Q 12.032 5.762 11.886 6.055 A 13.049 13.049 0 0 0 11.603 6.66 A 7.153 7.153 0 0 0 11.536 6.819 A 8.099 8.099 0 0 0 11.349 7.324 Q 11.259 7.311 11.22 7.345 A 0.085 0.085 0 0 0 11.193 7.393 A 0.128 0.128 0 0 1 11.126 7.482 A 0.185 0.185 0 0 1 11.075 7.5 A 0.675 0.675 0 0 1 11.077 7.508 Q 11.112 7.683 11.047 7.842 A 0.688 0.688 0 0 1 10.948 8.008 A 1.225 1.225 0 0 0 10.704 8.535 Q 10.663 8.729 10.665 8.952 A 2.475 2.475 0 0 0 10.675 9.141 Q 10.704 9.473 10.763 9.814 A 47.092 47.092 0 0 0 10.792 9.984 A 41.385 41.385 0 0 0 10.88 10.469 Q 10.91 10.627 10.93 10.771 A 4.479 4.479 0 0 1 10.958 11.035 A 0.605 0.605 0 0 1 11.074 11.103 A 0.39 0.39 0 0 1 11.222 11.318 A 0.61 0.61 0 0 0 11.283 11.467 A 0.68 0.68 0 0 0 11.427 11.641 Q 11.798 12.012 12.384 12.158 Q 12.97 12.305 13.615 12.324 A 8.486 8.486 0 0 0 13.872 12.328 A 8.155 8.155 0 0 0 14.884 12.266 A 17.473 17.473 0 0 0 15.167 12.228 Q 15.614 12.165 15.958 12.09 A 0.847 0.847 0 0 1 16.092 12.1 A 0.614 0.614 0 0 1 16.232 12.139 A 0.337 0.337 0 0 0 16.297 12.158 Q 16.366 12.172 16.451 12.161 A 0.772 0.772 0 0 0 16.525 12.148 A 63.739 63.739 0 0 1 17.216 12.021 A 47.422 47.422 0 0 1 17.843 11.914 A 7.021 7.021 0 0 0 18.309 11.822 A 5.588 5.588 0 0 0 18.927 11.641 A 2.614 2.614 0 0 0 19.796 11.123 A 2.021 2.021 0 0 0 19.958 10.96 Q 20.241 10.641 20.47 10.137 Q 20.353 10.156 20.304 10.088 Q 20.255 10.02 20.236 9.922 A 2.733 2.733 0 0 0 20.222 9.86 A 3.233 3.233 0 0 0 20.187 9.717 A 0.411 0.411 0 0 0 20.079 9.531 A 0.563 0.563 0 0 1 20.072 9.532 Q 19.901 9.549 19.786 9.453 A 1.665 1.665 0 0 1 19.728 9.402 A 1.889 1.889 0 0 1 19.562 9.229 A 11.776 11.776 0 0 1 19.452 9.097 A 14.106 14.106 0 0 1 19.337 8.955 A 0.762 0.762 0 0 0 19.28 8.891 A 0.607 0.607 0 0 0 19.064 8.75 A 4.328 4.328 0 0 1 18.707 8.857 A 5.252 5.252 0 0 1 18.077 8.975 A 3.081 3.081 0 0 0 17.635 9.062 A 2.28 2.28 0 0 0 17.15 9.258 A 11.77 11.77 0 0 0 16.975 9.254 Q 16.625 9.248 16.35 9.266 A 4.44 4.44 0 0 0 16.115 9.287 A 137.606 137.606 0 0 0 15.314 9.385 A 9.305 9.305 0 0 1 15.065 9.412 A 11 11 0 0 1 14.484 9.453 A 3.097 3.097 0 0 1 14.465 9.454 Q 14.169 9.465 13.773 9.425 A 9.111 9.111 0 0 1 13.38 9.375 Q 13.575 8.848 13.829 8.379 Q 14.083 7.91 14.396 7.5 Q 14.604 7.569 14.866 7.569 A 2.06 2.06 0 0 0 14.933 7.568 Q 15.236 7.559 15.45 7.656 Q 15.607 7.559 15.89 7.598 Q 16.173 7.637 16.329 7.539 Q 16.407 7.598 16.456 7.598 L 16.603 7.598 Q 16.824 7.607 17.025 7.588 A 2.403 2.403 0 0 0 17.452 7.51 Q 17.833 7.402 18.175 7.227 Q 18.517 7.051 18.829 6.826 Q 19.142 6.602 19.454 6.387 A 0.865 0.865 0 0 0 19.48 6.314 Q 19.511 6.209 19.511 6.108 A 0.653 0.653 0 0 0 19.503 6.006 A 1.309 1.309 0 0 0 19.495 5.96 A 1.149 1.149 0 0 0 19.396 5.664 A 0.725 0.725 0 0 1 19.394 5.664 Q 19.2 5.683 19.054 5.596 A 1.32 1.32 0 0 1 18.945 5.523 A 1.587 1.587 0 0 1 18.771 5.371 A 11.423 11.423 0 0 1 18.497 5.088 A 2.144 2.144 0 0 0 18.378 4.969 A 1.644 1.644 0 0 0 18.224 4.844 Q 18.213 4.801 18.22 4.773 A 0.063 0.063 0 0 1 18.243 4.736 A 0.056 0.056 0 0 0 18.259 4.718 Q 18.275 4.689 18.267 4.633 A 0.388 0.388 0 0 0 18.263 4.609 Q 17.462 4.629 16.632 4.707 Q 15.802 4.785 15.118 4.727 Q 15.067 4.624 15.068 4.469 A 0.993 0.993 0 0 1 15.07 4.424 A 0.782 0.782 0 0 0 15.071 4.383 A 0.781 0.781 0 0 0 15.001 4.063 A 7.236 7.236 0 0 1 15.353 3.955 A 0.775 0.775 0 0 0 15.411 3.936 A 0.634 0.634 0 0 0 15.646 3.789 A 2.349 2.349 0 0 0 15.754 3.797 Q 16.066 3.814 16.241 3.73 A 0.499 0.499 0 0 1 16.459 3.682 Q 16.573 3.682 16.7 3.73 A 4.391 4.391 0 0 1 17.104 3.513 A 3.574 3.574 0 0 1 17.999 3.223 A 185.273 185.273 0 0 1 19.279 2.998 A 5.277 5.277 0 0 0 19.433 2.969 A 4.666 4.666 0 0 0 20.441 2.646 Q 20.781 2.492 21.07 2.169 A 3.031 3.031 0 0 0 21.388 1.738 A 1.851 1.851 0 0 1 21.375 1.691 Q 21.358 1.624 21.352 1.577 A 0.356 0.356 0 0 1 21.349 1.533 A 0.883 0.883 0 0 1 21.35 1.483 A 0.715 0.715 0 0 1 21.359 1.406 A 4.95 4.95 0 0 0 21.368 1.345 A 6.203 6.203 0 0 0 21.378 1.279 Q 21.386 1.225 21.375 1.128 Z M 36.7 6.953 L 36.486 6.895 A 3.826 3.826 0 0 0 35.984 6.653 A 4.707 4.707 0 0 0 35.646 6.533 Q 35.243 6.407 34.941 6.26 A 3.336 3.336 0 0 1 34.845 6.211 A 0.715 0.715 0 0 1 34.731 6.262 Q 34.649 6.289 34.572 6.289 A 0.419 0.419 0 0 1 34.445 6.27 Q 34.32 6.23 34.147 6.191 A 7.082 7.082 0 0 0 33.966 6.152 A 13.209 13.209 0 0 1 32.841 6.039 A 11.984 11.984 0 0 1 32.687 6.016 A 4.663 4.663 0 0 1 31.505 5.664 A 0.781 0.781 0 0 0 31.43 5.52 A 0.707 0.707 0 0 0 31.407 5.488 Q 31.349 5.41 31.193 5.449 A 12.259 12.259 0 0 0 30.958 5.146 A 2.281 2.281 0 0 1 30.768 4.868 A 2.546 2.546 0 0 1 30.743 4.824 A 11.836 11.836 0 0 0 30.77 4.658 Q 30.782 4.577 30.792 4.505 A 5.655 5.655 0 0 0 30.802 4.424 Q 30.821 4.262 30.691 4.109 A 0.683 0.683 0 0 0 30.685 4.102 A 14.069 14.069 0 0 0 30.721 3.981 Q 30.765 3.833 30.793 3.725 A 4.04 4.04 0 0 0 30.802 3.691 A 0.624 0.624 0 0 0 30.817 3.607 Q 30.83 3.484 30.807 3.316 A 2.025 2.025 0 0 0 30.802 3.281 A 1.72 1.72 0 0 1 31.241 2.578 Q 31.544 2.285 31.906 2.08 A 4.597 4.597 0 0 1 32.657 1.738 A 12.745 12.745 0 0 1 33.13 1.583 A 10.542 10.542 0 0 1 33.4 1.504 A 23.323 23.323 0 0 1 34.578 1.042 A 27.109 27.109 0 0 1 35.07 0.869 A 23.419 23.419 0 0 1 36.886 0.332 A 10.853 10.853 0 0 1 38.79 0.029 Q 39.767 -0.039 40.841 0.273 Q 40.9 0.469 41.017 0.645 A 11.42 11.42 0 0 0 41.261 0.996 A 4.674 4.674 0 0 1 41.408 1.212 A 3.911 3.911 0 0 1 41.486 1.338 A 0.895 0.895 0 0 1 41.582 1.565 A 0.8 0.8 0 0 1 41.603 1.68 A 1.638 1.638 0 0 1 41.823 1.92 A 1.404 1.404 0 0 1 41.915 2.061 A 0.528 0.528 0 0 1 41.977 2.242 Q 42.002 2.396 41.954 2.598 A 6.694 6.694 0 0 1 41.69 2.799 A 5.7 5.7 0 0 1 41.573 2.881 Q 41.388 3.008 41.173 3.105 A 4.617 4.617 0 0 0 40.078 2.974 A 4.698 4.698 0 0 0 39.708 2.988 A 132.604 132.604 0 0 1 39.047 3.039 Q 38.736 3.062 38.459 3.081 A 78.1 78.1 0 0 1 38.38 3.086 A 0.59 0.59 0 0 0 38.154 2.941 A 0.591 0.591 0 0 0 37.96 2.91 A 1.688 1.688 0 0 0 37.615 2.947 A 2.038 2.038 0 0 0 37.452 2.988 L 36.925 3.145 A 1.277 1.277 0 0 1 36.713 3.189 Q 36.565 3.207 36.427 3.184 A 0.967 0.967 0 0 1 36.109 3.35 A 1.236 1.236 0 0 1 35.948 3.389 A 10.381 10.381 0 0 1 35.653 3.435 A 13.023 13.023 0 0 1 35.333 3.477 A 0.274 0.274 0 0 0 35.33 3.497 Q 35.32 3.577 35.372 3.604 A 0.062 0.062 0 0 1 35.397 3.625 Q 35.42 3.66 35.392 3.729 A 0.344 0.344 0 0 1 35.392 3.73 A 0.634 0.634 0 0 0 35.655 3.912 A 0.77 0.77 0 0 0 35.695 3.926 A 14.31 14.31 0 0 0 35.984 4.014 A 16.401 16.401 0 0 0 36.085 4.043 A 1.894 1.894 0 0 1 36.289 4.113 A 1.458 1.458 0 0 1 36.447 4.189 Q 36.603 4.277 36.661 4.473 A 1.055 1.055 0 0 1 36.925 4.504 A 0.843 0.843 0 0 1 37.169 4.609 A 1.251 1.251 0 0 1 37.462 4.864 A 1.163 1.163 0 0 1 37.521 4.941 Q 37.657 5.137 37.726 5.361 A 1.808 1.808 0 0 1 37.77 5.536 Q 37.787 5.623 37.792 5.702 A 0.97 0.97 0 0 1 37.794 5.762 A 0.534 0.534 0 0 0 37.816 5.812 Q 37.86 5.901 37.914 5.901 A 0.07 0.07 0 0 0 37.931 5.898 Q 38.009 5.879 38.107 5.977 Q 38.165 6.23 38.4 6.494 Q 38.634 6.758 38.771 7.07 A 37.892 37.892 0 0 1 38.801 7.477 Q 38.818 7.725 38.829 7.939 A 1.655 1.655 0 0 1 38.832 8.024 Q 38.832 8.289 38.747 8.559 A 2.111 2.111 0 0 1 38.693 8.711 A 4.276 4.276 0 0 1 37.882 10 A 6.456 6.456 0 0 1 36.71 11.006 A 8.216 8.216 0 0 1 35.314 11.758 A 15.632 15.632 0 0 1 34.222 12.172 A 13.64 13.64 0 0 1 33.868 12.285 Q 33.79 12.266 33.712 12.285 A 0.105 0.105 0 0 1 33.703 12.287 Q 33.641 12.297 33.668 12.202 A 0.392 0.392 0 0 1 33.673 12.188 A 0.798 0.798 0 0 1 33.477 12.315 A 0.703 0.703 0 0 1 33.331 12.363 A 1.475 1.475 0 0 1 33.098 12.393 Q 33.057 12.395 33.016 12.395 A 1.867 1.867 0 0 1 32.931 12.393 Q 32.716 12.383 32.491 12.363 Q 32.295 12.346 32.121 12.374 A 1.277 1.277 0 0 0 32.072 12.383 A 4.789 4.789 0 0 1 31.927 12.232 A 3.818 3.818 0 0 1 31.827 12.119 A 0.775 0.775 0 0 1 31.723 11.956 A 1.065 1.065 0 0 1 31.661 11.797 A 0.141 0.141 0 0 1 31.627 11.793 Q 31.566 11.778 31.573 11.699 Q 31.582 11.613 31.523 11.603 A 0.102 0.102 0 0 0 31.505 11.602 Q 31.622 11.406 31.613 11.377 A 0.056 0.056 0 0 0 31.599 11.355 Q 31.583 11.34 31.554 11.328 Q 31.505 11.309 31.466 11.279 Q 31.428 11.251 31.445 11.195 A 0.159 0.159 0 0 1 31.447 11.191 A 0.595 0.595 0 0 0 31.506 10.982 Q 31.513 10.91 31.505 10.83 A 98.305 98.305 0 0 1 31.466 10.41 A 1.338 1.338 0 0 1 31.46 10.289 A 1.187 1.187 0 0 1 31.495 10 Q 31.544 9.805 31.779 9.688 A 4.244 4.244 0 0 0 32.275 9.717 A 3.655 3.655 0 0 0 33.038 9.639 A 5.67 5.67 0 0 0 34.145 9.285 A 5.286 5.286 0 0 0 34.161 9.277 A 11.167 11.167 0 0 0 35.167 8.77 A 12.08 12.08 0 0 1 35.997 8.336 A 10.941 10.941 0 0 1 36.115 8.281 A 0.905 0.905 0 0 1 36.188 8.116 A 0.716 0.716 0 0 1 36.281 7.988 Q 36.388 7.871 36.505 7.773 Q 36.622 7.676 36.72 7.559 Q 36.818 7.441 36.857 7.266 Q 36.87 7.172 36.833 7.128 A 0.098 0.098 0 0 0 36.788 7.1 Q 36.7 7.07 36.7 6.953 Z M 69.728 6.953 L 69.513 6.895 A 3.826 3.826 0 0 0 69.011 6.653 A 4.707 4.707 0 0 0 68.673 6.533 Q 68.27 6.407 67.968 6.26 A 3.336 3.336 0 0 1 67.872 6.211 A 0.715 0.715 0 0 1 67.758 6.262 Q 67.676 6.289 67.599 6.289 A 0.419 
    0.419 0 0 1 67.472 6.27 Q 67.347 6.23 67.174 6.191 A 7.082 7.082 0 0 0 66.993 6.152 A 13.209 13.209 0 0 1 65.869 6.039 A 11.984 11.984 0 0 1 65.714 6.016 A 4.663 4.663 0 0 1 64.532 5.664 A 0.781 0.781 0 0 0 64.457 5.52 A 0.707 0.707 0 0 0 64.435 5.488 Q 64.376 5.41 64.22 5.449 A 12.259 12.259 0 0 0 63.986 5.146 A 2.281 2.281 0 0 1 63.795 4.868 A 2.546 2.546 0 0 1 63.771 4.824 A 11.836 11.836 0 0 0 63.797 4.658 Q 63.81 4.577 63.819 4.505 A 5.655 5.655 0 0 0 63.829 4.424 Q 63.848 4.262 63.719 4.109 A 0.683 0.683 0 0 0 63.712 4.102 A 14.069 14.069 0 0 0 63.749 3.981 Q 63.793 3.833 63.821 3.725 A 4.04 4.04 0 0 0 63.829 3.691 A 0.624 0.624 0 0 0 63.844 3.607 Q 63.857 3.484 63.834 3.316 A 2.025 2.025 0 0 0 63.829 3.281 A 1.72 1.72 0 0 1 64.269 2.578 Q 64.572 2.285 64.933 2.08 A 4.597 4.597 0 0 1 65.685 1.738 A 12.745 12.745 0 0 1 66.158 1.583 A 10.542 10.542 0 0 1 66.427 1.504 A 23.323 23.323 0 0 1 67.606 1.042 A 27.109 27.109 0 0 1 68.097 0.869 A 23.419 23.419 0 0 1 69.913 0.332 A 10.853 10.853 0 0 1 71.818 0.029 Q 72.794 -0.039 73.868 0.273 Q 73.927 0.469 74.044 0.645 A 11.42 11.42 0 0 0 74.288 0.996 A 4.674 4.674 0 0 1 74.436 1.212 A 3.911 3.911 0 0 1 74.513 1.338 A 0.895 0.895 0 0 1 74.609 1.565 A 0.8 0.8 0 0 1 74.63 1.68 A 1.638 1.638 0 0 1 74.851 1.92 A 1.404 1.404 0 0 1 74.943 2.061 A 0.528 0.528 0 0 1 75.005 2.242 Q 75.029 2.396 74.982 2.598 A 6.694 6.694 0 0 1 74.718 2.799 A 5.7 5.7 0 0 1 74.601 2.881 Q 74.415 3.008 74.2 3.105 A 4.617 4.617 0 0 0 73.105 2.974 A 4.698 4.698 0 0 0 72.736 2.988 A 132.604 132.604 0 0 1 72.074 3.039 Q 71.763 3.062 71.486 3.081 A 78.1 78.1 0 0 1 71.407 3.086 A 0.59 0.59 0 0 0 71.181 2.941 A 0.591 0.591 0 0 0 70.988 2.91 A 1.688 1.688 0 0 0 70.643 2.947 A 2.038 2.038 0 0 0 70.48 2.988 L 69.952 3.145 A 1.277 1.277 0 0 1 69.74 3.189 Q 69.592 3.207 69.454 3.184 A 0.967 0.967 0 0 1 69.136 3.35 A 1.236 1.236 0 0 1 68.976 3.389 A 10.381 10.381 0 0 1 68.68 3.435 A 13.023 13.023 0 0 1 68.361 3.477 A 0.274 0.274 0 0 0 68.357 3.497 Q 68.347 3.577 68.4 3.604 A 0.062 0.062 0 0 1 68.425 3.625 Q 68.447 3.66 68.42 3.729 A 0.344 0.344 0 0 1 68.419 3.73 A 0.634 0.634 0 0 0 68.682 3.912 A 0.77 0.77 0 0 0 68.722 3.926 A 14.31 14.31 0 0 0 69.011 4.014 A 16.401 16.401 0 0 0 69.113 4.043 A 1.894 1.894 0 0 1 69.317 4.113 A 1.458 1.458 0 0 1 69.474 4.189 Q 69.63 4.277 69.689 4.473 A 1.055 1.055 0 0 1 69.952 4.504 A 0.843 0.843 0 0 1 70.197 4.609 A 1.251 1.251 0 0 1 70.489 4.864 A 1.163 1.163 0 0 1 70.548 4.941 Q 70.685 5.137 70.753 5.361 A 1.808 1.808 0 0 1 70.797 5.536 Q 70.815 5.623 70.82 5.702 A 0.97 0.97 0 0 1 70.822 5.762 A 0.534 0.534 0 0 0 70.843 5.812 Q 70.887 5.901 70.941 5.901 A 0.07 0.07 0 0 0 70.958 5.898 Q 71.036 5.879 71.134 5.977 Q 71.193 6.23 71.427 6.494 Q 71.661 6.758 71.798 7.07 A 37.892 37.892 0 0 1 71.829 7.477 Q 71.846 7.725 71.857 7.939 A 1.655 1.655 0 0 1 71.859 8.024 Q 71.859 8.289 71.774 8.559 A 2.111 2.111 0 0 1 71.72 8.711 A 4.276 4.276 0 0 1 70.909 10 A 6.456 6.456 0 0 1 69.738 11.006 A 8.216 8.216 0 0 1 68.341 11.758 A 15.632 15.632 0 0 1 67.25 12.172 A 13.64 13.64 0 0 1 66.896 12.285 Q 66.818 12.266 66.74 12.285 A 0.105 0.105 0 0 1 66.73 12.287 Q 66.668 12.297 66.696 12.202 A 0.392 0.392 0 0 1 66.7 12.188 A 0.798 0.798 0 0 1 66.505 12.315 A 0.703 0.703 0 0 1 66.359 12.363 A 1.475 1.475 0 0 1 66.125 12.393 Q 66.085 12.395 66.043 12.395 A 1.867 1.867 0 0 1 65.958 12.393 Q 65.743 12.383 65.519 12.363 Q 65.322 12.346 65.148 12.374 A 1.277 1.277 0 0 0 65.099 12.383 A 4.789 4.789 0 0 1 64.954 12.232 A 3.818 3.818 0 0 1 64.855 12.119 A 0.775 0.775 0 0 1 64.75 11.956 A 1.065 1.065 0 0 1 64.689 11.797 A 0.141 0.141 0 0 1 64.654 11.793 Q 64.593 11.778 64.601 11.699 Q 64.609 11.613 64.55 11.603 A 0.102 0.102 0 0 0 64.532 11.602 Q 64.65 11.406 64.64 11.377 A 0.056 0.056 0 0 0 64.626 11.355 Q 64.611 11.34 64.581 11.328 Q 64.532 11.309 64.493 11.279 Q 64.456 11.251 64.473 11.195 A 0.159 0.159 0 0 1 64.474 11.191 A 0.595 0.595 0 0 0 64.533 10.982 Q 64.54 10.91 64.532 10.83 A 98.305 98.305 0 0 1 64.493 10.41 A 1.338 1.338 0 0 1 64.488 10.289 A 1.187 1.187 0 0 1 64.523 10 Q 64.572 9.805 64.806 9.688 A 4.244 4.244 0 0 0 65.302 9.717 A 3.655 3.655 0 0 0 66.066 9.639 A 5.67 5.67 0 0 0 67.172 9.285 A 5.286 5.286 0 0 0 67.189 9.277 A 11.167 11.167 0 0 0 68.195 8.77 A 12.08 12.08 0 0 1 69.025 8.336 A 10.941 10.941 0 0 1 69.142 8.281 A 0.905 0.905 0 0 1 69.215 8.116 A 0.716 0.716 0 0 1 69.308 7.988 Q 69.415 7.871 69.532 7.773 Q 69.65 7.676 69.747 7.559 Q 69.845 7.441 69.884 7.266 Q 69.897 7.172 69.86 7.128 A 0.098 0.098 0 0 0 69.816 7.1 Q 69.728 7.07 69.728 6.953 Z M 100.372 6.953 L 100.157 6.895 A 3.826 3.826 0 0 0 99.655 6.653 A 4.707 4.707 0 0 0 99.318 6.533 Q 98.915 6.407 98.613 6.26 A 3.336 3.336 0 0 1 98.517 6.211 A 0.715 0.715 0 0 1 98.403 6.262 Q 98.321 6.289 98.243 6.289 A 0.419 0.419 0 0 1 98.116 6.27 Q 97.992 6.23 97.819 6.191 A 7.082 7.082 0 0 0 97.638 6.152 A 13.209 13.209 0 0 1 96.513 6.039 A 11.984 11.984 0 0 1 96.359 6.016 A 4.663 4.663 0 0 1 95.177 5.664 A 0.781 0.781 0 0 0 95.101 5.52 A 0.707 0.707 0 0 0 95.079 5.488 Q 95.021 5.41 94.865 5.449 A 12.259 12.259 0 0 0 94.63 5.146 A 2.281 2.281 0 0 1 94.44 4.868 A 2.546 2.546 0 0 1 94.415 4.824 A 11.836 11.836 0 0 0 94.442 4.658 Q 94.454 4.577 94.464 4.505 A 5.655 5.655 0 0 0 94.474 4.424 Q 94.493 4.262 94.363 4.109 A 0.683 0.683 0 0 0 94.357 4.102 A 14.069 14.069 0 0 0 94.393 3.981 Q 94.437 3.833 94.465 3.725 A 4.04 4.04 0 0 0 94.474 3.691 A 0.624 0.624 0 0 0 94.489 3.607 Q 94.502 3.484 94.479 3.316 A 2.025 2.025 0 0 0 94.474 3.281 A 1.72 1.72 0 0 1 94.913 2.578 Q 95.216 2.285 95.577 2.08 A 4.597 4.597 0 0 1 96.329 1.738 A 12.745 12.745 0 0 1 96.802 1.583 A 10.542 10.542 0 0 1 97.072 1.504 A 23.323 23.323 0 0 1 98.25 1.042 A 27.109 27.109 0 0 1 98.741 0.869 A 23.419 23.419 0 0 1 100.558 0.332 A 10.853 10.853 0 0 1 102.462 0.029 Q 103.439 -0.039 104.513 0.273 Q 104.572 0.469 104.689 0.645 A 11.42 11.42 0 0 0 104.933 0.996 A 4.674 4.674 0 0 1 105.08 1.212 A 3.911 3.911 0 0 1 105.157 1.338 A 0.895 0.895 0 0 1 105.253 1.565 A 0.8 0.8 0 0 1 105.275 1.68 A 1.638 1.638 0 0 1 105.495 1.92 A 1.404 1.404 0 0 1 105.587 2.061 A 0.528 0.528 0 0 1 105.649 2.242 Q 105.674 2.396 105.626 2.598 A 6.694 6.694 0 0 1 105.362 2.799 A 5.7 5.7 0 0 1 105.245 2.881 Q 105.06 3.008 104.845 3.105 A 4.617 4.617 0 0 0 103.75 2.974 A 4.698 4.698 0 0 0 103.38 2.988 A 132.604 132.604 0 0 1 102.719 3.039 Q 102.408 3.062 102.131 3.081 A 78.1 78.1 0 0 1 102.052 3.086 A 0.59 0.59 0 0 0 101.826 2.941 A 0.591 0.591 0 0 0 101.632 2.91 A 1.688 1.688 0 0 0 101.287 2.947 A 2.038 2.038 0 0 0 101.124 2.988 L 100.597 3.145 A 1.277 1.277 0 0 1 100.385 3.189 Q 100.237 3.207 100.099 3.184 A 0.967 0.967 0 0 1 99.781 3.35 A 1.236 1.236 0 0 1 99.62 3.389 A 10.381 10.381 0 0 1 99.325 3.435 A 13.023 13.023 0 0 1 99.005 3.477 A 0.274 0.274 0 0 0 99.002 3.497 Q 98.992 3.577 99.044 3.604 A 0.062 0.062 0 0 1 99.069 3.625 Q 99.092 3.66 99.064 3.729 A 0.344 0.344 0 0 1 99.064 3.73 A 0.634 0.634 0 0 0 99.327 3.912 A 0.77 0.77 0 0 0 99.366 3.926 A 14.31 14.31 0 0 0 99.656 4.014 A 16.401 16.401 0 0 0 99.757 4.043 A 1.894 1.894 0 0 1 99.961 4.113 A 1.458 1.458 0 0 1 100.118 4.189 Q 100.275 4.277 100.333 4.473 A 1.055 1.055 0 0 1 100.597 4.504 A 0.843 0.843 0 0 1 100.841 4.609 A 1.251 1.251 0 0 1 101.134 4.864 A 1.163 1.163 0 0 1 101.193 4.941 Q 101.329 5.137 101.398 5.361 A 1.808 1.808 0 0 1 101.442 5.536 Q 101.459 5.623 101.464 5.702 A 0.97 0.97 0 0 1 101.466 5.762 A 0.534 0.534 0 0 0 101.488 5.812 Q 101.532 5.901 101.586 5.901 A 0.07 0.07 0 0 0 101.603 5.898 Q 101.681 5.879 101.779 5.977 Q 101.837 6.23 102.072 6.494 Q 102.306 6.758 102.443 7.07 A 37.892 37.892 0 0 1 102.473 7.477 Q 102.49 7.725 102.501 7.939 A 1.655 1.655 0 0 1 102.503 8.024 Q 102.503 8.289 102.419 8.559 A 2.111 2.111 0 0 1 102.365 8.711 A 4.276 4.276 0 0 1 101.554 10 A 6.456 6.456 0 0 1 100.382 11.006 A 8.216 8.216 0 0 1 98.986 11.758 A 15.632 15.632 0 0 1 97.894 12.172 A 13.64 13.64 0 0 1 97.54 12.285 Q 97.462 12.266 97.384 12.285 A 0.105 0.105 0 0 1 97.375 12.287 Q 97.313 12.297 97.34 12.202 A 0.392 0.392 0 0 1 97.345 12.188 A 0.798 0.798 0 0 1 97.149 12.315 A 0.703 0.703 0 0 1 97.003 12.363 A 1.475 1.475 0 0 1 96.77 12.393 Q 96.729 12.395 96.688 12.395 A 1.867 1.867 0 0 1 96.603 12.393 Q 96.388 12.383 96.163 12.363 Q 95.967 12.346 95.793 12.374 A 1.277 1.277 0 0 0 95.743 12.383 A 4.789 4.789 0 0 1 95.599 12.232 A 3.818 3.818 0 0 1 95.499 12.119 A 0.775 0.775 0 0 1 95.394 11.956 A 1.065 1.065 0 0 1 95.333 11.797 A 0.141 0.141 0 0 1 95.299 11.793 Q 95.238 11.778 95.245 11.699 Q 95.254 11.613 95.195 11.603 A 0.102 0.102 0 0 0 95.177 11.602 Q 95.294 11.406 95.284 11.377 A 0.056 0.056 0 0 0 95.27 11.355 Q 95.255 11.34 95.226 11.328 Q 95.177 11.309 95.138 11.279 Q 95.1 11.251 95.117 11.195 A 0.159 0.159 0 0 1 95.118 11.191 A 0.595 0.595 0 0 0 95.177 10.982 Q 95.185 10.91 95.177 10.83 A 98.305 98.305 0 0 1 95.138 10.41 A 1.338 1.338 0 0 1 95.132 10.289 A 1.187 1.187 0 0 1 95.167 10 Q 95.216 9.805 95.45 9.688 A 4.244 4.244 0 0 0 95.946 9.717 A 3.655 3.655 0 0 0 96.71 9.639 A 5.67 5.67 0 0 0 97.817 9.285 A 5.286 5.286 0 0 0 97.833 9.277 A 11.167 11.167 0 0 0 98.839 8.77 A 12.08 12.08 0 0 1 99.669 8.336 A 10.941 10.941 0 0 1 99.786 8.281 A 0.905 0.905 0 0 1 99.86 8.116 A 0.716 0.716 0 0 1 99.952 7.988 Q 100.06 7.871 100.177 7.773 Q 100.294 7.676 100.392 7.559 Q 100.49 7.441 100.529 7.266 Q 100.542 7.172 100.505 7.128 A 0.098 0.098 0 0 0 100.46 7.1 Q 100.372 7.07 100.372 6.953 Z M 109.65 6.953 L 109.435 6.895 A 3.826 3.826 0 0 0 108.933 6.653 A 4.707 4.707 0 0 0 108.595 6.533 Q 108.192 6.407 107.89 6.26 A 3.336 3.336 0 0 1 107.794 6.211 A 0.715 0.715 0 0 1 107.68 6.262 Q 107.598 6.289 107.521 6.289 A 0.419 0.419 0 0 1 107.394 6.27 Q 107.269 6.23 107.096 6.191 A 7.082 7.082 0 0 0 106.915 6.152 A 13.209 13.209 0 0 1 105.791 6.039 A 11.984 11.984 0 0 1 105.636 6.016 A 4.663 4.663 0 0 1 104.454 5.664 A 0.781 0.781 0 0 0 104.379 5.52 A 0.707 0.707 0 0 0 104.357 5.488 Q 104.298 5.41 104.142 5.449 A 12.259 12.259 0 0 0 103.907 5.146 A 
    2.281 2.281 0 0 1 103.717 4.868 A 2.546 2.546 0 0 1 103.693 4.824 A 11.836 11.836 0 0 0 103.719 4.658 Q 103.732 4.577 103.741 4.505 A 5.655 5.655 0 0 0 103.751 4.424 Q 103.77 4.262 103.641 4.109 A 0.683 0.683 0 0 0 103.634 4.102 A 14.069 14.069 0 0 0 103.671 3.981 Q 103.715 3.833 103.743 3.725 A 4.04 4.04 0 0 0 103.751 3.691 A 0.624 0.624 0 0 0 103.766 3.607 Q 103.779 3.484 103.756 3.316 A 2.025 2.025 0 0 0 103.751 3.281 A 1.72 1.72 0 0 1 104.191 2.578 Q 104.493 2.285 104.855 2.08 A 4.597 4.597 0 0 1 105.607 1.738 A 12.745 12.745 0 0 1 106.08 1.583 A 10.542 10.542 0 0 1 106.349 1.504 A 23.323 23.323 0 0 1 107.527 1.042 A 27.109 27.109 0 0 1 108.019 0.869 A 23.419 23.419 0 0 1 109.835 0.332 A 10.853 10.853 0 0 1 111.74 0.029 Q 112.716 -0.039 113.79 0.273 Q 113.849 0.469 113.966 0.645 A 11.42 11.42 0 0 0 114.21 0.996 A 4.674 4.674 0 0 1 114.357 1.212 A 3.911 3.911 0 0 1 114.435 1.338 A 0.895 0.895 0 0 1 114.531 1.565 A 0.8 0.8 0 0 1 114.552 1.68 A 1.638 1.638 0 0 1 114.772 1.92 A 1.404 1.404 0 0 1 114.865 2.061 A 0.528 0.528 0 0 1 114.927 2.242 Q 114.951 2.396 114.904 2.598 A 6.694 6.694 0 0 1 114.64 2.799 A 5.7 5.7 0 0 1 114.523 2.881 Q 114.337 3.008 114.122 3.105 A 4.617 4.617 0 0 0 113.027 2.974 A 4.698 4.698 0 0 0 112.657 2.988 A 132.604 132.604 0 0 1 111.996 3.039 Q 111.685 3.062 111.408 3.081 A 78.1 78.1 0 0 1 111.329 3.086 A 0.59 0.59 0 0 0 111.103 2.941 A 0.591 0.591 0 0 0 110.909 2.91 A 1.688 1.688 0 0 0 110.564 2.947 A 2.038 2.038 0 0 0 110.402 2.988 L 109.874 3.145 A 1.277 1.277 0 0 1 109.662 3.189 Q 109.514 3.207 109.376 3.184 A 0.967 0.967 0 0 1 109.058 3.35 A 1.236 1.236 0 0 1 108.898 3.389 A 10.381 10.381 0 0 1 108.602 3.435 A 13.023 13.023 0 0 1 108.282 3.477 A 0.274 0.274 0 0 0 108.279 3.497 Q 108.269 3.577 108.322 3.604 A 0.062 0.062 0 0 1 108.347 3.625 Q 108.369 3.66 108.342 3.729 A 0.344 0.344 0 0 1 108.341 3.73 A 0.634 0.634 0 0 0 108.604 3.912 A 0.77 0.77 0 0 0 108.644 3.926 A 14.31 14.31 0 0 0 108.933 4.014 A 16.401 16.401 0 0 0 109.034 4.043 A 1.894 1.894 0 0 1 109.239 4.113 A 1.458 1.458 0 0 1 109.396 4.189 Q 109.552 4.277 109.611 4.473 A 1.055 1.055 0 0 1 109.874 4.504 A 0.843 0.843 0 0 1 110.118 4.609 A 1.251 1.251 0 0 1 110.411 4.864 A 1.163 1.163 0 0 1 110.47 4.941 Q 110.607 5.137 110.675 5.361 A 1.808 1.808 0 0 1 110.719 5.536 Q 110.737 5.623 110.742 5.702 A 0.97 0.97 0 0 1 110.743 5.762 A 0.534 0.534 0 0 0 110.765 5.812 Q 110.809 5.901 110.863 5.901 A 0.07 0.07 0 0 0 110.88 5.898 Q 110.958 5.879 111.056 5.977 Q 111.115 6.23 111.349 6.494 Q 111.583 6.758 111.72 7.07 A 37.892 37.892 0 0 1 111.75 7.477 Q 111.768 7.725 111.779 7.939 A 1.655 1.655 0 0 1 111.781 8.024 Q 111.781 8.289 111.696 8.559 A 2.111 2.111 0 0 1 111.642 8.711 A 4.276 4.276 0 0 1 110.831 10 A 6.456 6.456 0 0 1 109.659 11.006 A 8.216 8.216 0 0 1 108.263 11.758 A 15.632 15.632 0 0 1 107.172 12.172 A 13.64 13.64 0 0 1 106.818 12.285 Q 106.74 12.266 106.661 12.285 A 0.105 0.105 0 0 1 106.652 12.287 Q 106.59 12.297 106.618 12.202 A 0.392 0.392 0 0 1 106.622 12.188 A 0.798 0.798 0 0 1 106.426 12.315 A 0.703 0.703 0 0 1 106.281 12.363 A 1.475 1.475 0 0 1 106.047 12.393 Q 106.007 12.395 105.965 12.395 A 1.867 1.867 0 0 1 105.88 12.393 Q 105.665 12.383 105.441 12.363 Q 105.244 12.346 105.07 12.374 A 1.277 1.277 0 0 0 105.021 12.383 A 4.789 4.789 0 0 1 104.876 12.232 A 3.818 3.818 0 0 1 104.777 12.119 A 0.775 0.775 0 0 1 104.672 11.956 A 1.065 1.065 0 0 1 104.611 11.797 A 0.141 0.141 0 0 1 104.576 11.793 Q 104.515 11.778 104.523 11.699 Q 104.531 11.613 104.472 11.603 A 0.102 0.102 0 0 0 104.454 11.602 Q 104.572 11.406 104.562 11.377 A 0.056 0.056 0 0 0 104.548 11.355 Q 104.533 11.34 104.503 11.328 Q 104.454 11.309 104.415 11.279 Q 104.378 11.251 104.394 11.195 A 0.159 0.159 0 0 1 104.396 11.191 A 0.595 0.595 0 0 0 104.455 10.982 Q 104.462 10.91 104.454 10.83 A 98.305 98.305 0 0 1 104.415 10.41 A 1.338 1.338 0 0 1 104.41 10.289 A 1.187 1.187 0 0 1 104.445 10 Q 104.493 9.805 104.728 9.688 A 4.244 4.244 0 0 0 105.224 9.717 A 3.655 3.655 0 0 0 105.988 9.639 A 5.67 5.67 0 0 0 107.094 9.285 A 5.286 5.286 0 0 0 107.111 9.277 A 11.167 11.167 0 0 0 108.116 8.77 A 12.08 12.08 0 0 1 108.946 8.336 A 10.941 10.941 0 0 1 109.064 8.281 A 0.905 0.905 0 0 1 109.137 8.116 A 0.716 0.716 0 0 1 109.23 7.988 Q 109.337 7.871 109.454 7.773 Q 109.572 7.676 109.669 7.559 Q 109.767 7.441 109.806 7.266 Q 109.819 7.172 109.782 7.128 A 0.098 0.098 0 0 0 109.738 7.1 Q 109.65 7.07 109.65 6.953 Z M 92.697 8.262 L 92.306 8.125 L 92.228 8.613 L 91.954 8.691 L 91.759 8.926 A 6.954 6.954 0 0 1 91.39 9.502 A 5.044 5.044 0 0 1 90.978 10.009 Q 90.568 10.449 90.05 10.791 Q 89.532 11.133 88.878 11.426 Q 88.234 11.714 87.43 12.059 A 135.743 135.743 0 0 1 87.404 12.07 Q 87.149 12.04 86.947 12.028 A 5.254 5.254 0 0 0 86.827 12.021 A 9.759 9.759 0 0 1 86.534 12.005 A 8.089 8.089 0 0 1 86.368 11.992 Q 85.997 11.992 85.45 11.934 A 0.506 0.506 0 0 0 85.403 11.838 Q 85.364 11.777 85.31 11.74 A 0.3 0.3 0 0 0 85.275 11.719 Q 85.157 11.66 85.06 11.66 A 1.12 1.12 0 0 1 84.72 11.419 A 1.043 1.043 0 0 1 84.562 11.201 A 8.332 8.332 0 0 1 84.338 10.762 A 9.795 9.795 0 0 1 84.24 10.547 A 8.25 8.25 0 0 0 84.117 10.29 A 6.903 6.903 0 0 0 84.044 10.146 A 7.587 7.587 0 0 0 83.887 9.863 A 8.589 8.589 0 0 0 83.829 9.766 L 84.161 9.668 L 83.732 9.199 A 0.494 0.494 0 0 0 83.652 9.107 A 0.567 0.567 0 0 0 83.634 9.092 A 0.518 0.518 0 0 1 83.556 9.011 A 0.465 0.465 0 0 1 83.536 8.984 L 83.517 8.672 Q 83.467 7.517 83.467 6.527 A 37.431 37.431 0 0 1 83.468 6.201 Q 83.478 5.078 83.771 4.199 L 83.771 3.984 A 16.711 16.711 0 0 1 83.8 3.779 Q 83.843 3.493 83.885 3.285 A 5.736 5.736 0 0 1 83.888 3.271 Q 83.947 2.988 83.986 2.734 A 5.074 5.074 0 0 1 84.093 2.173 A 4.32 4.32 0 0 1 84.161 1.934 A 0.95 0.95 0 0 0 84.34 1.878 Q 84.484 1.815 84.572 1.709 A 6.915 6.915 0 0 0 84.684 1.569 Q 84.734 1.505 84.778 1.445 A 4.053 4.053 0 0 0 84.806 1.406 A 1.309 1.309 0 0 1 84.856 1.404 Q 85.067 1.397 85.16 1.469 A 0.192 0.192 0 0 1 85.177 1.484 A 0.617 0.617 0 0 1 85.241 1.561 Q 85.302 1.646 85.363 1.776 A 2.22 2.22 0 0 1 85.372 1.797 A 4.096 4.096 0 0 0 85.467 1.958 Q 85.517 2.04 85.576 2.128 A 7.022 7.022 0 0 0 85.616 2.188 A 0.834 0.834 0 0 0 85.857 2.418 A 1.159 1.159 0 0 0 86.056 2.52 A 2.221 2.221 0 0 0 86.123 2.739 A 2.618 2.618 0 0 0 86.163 2.842 A 34.41 34.41 0 0 1 86.234 3.015 A 43.628 43.628 0 0 1 86.31 3.203 A 7.346 7.346 0 0 1 86.593 3.896 A 2.789 2.789 0 0 1 86.704 4.304 A 2.258 2.258 0 0 1 86.74 4.59 A 3.043 3.043 0 0 0 86.548 5.044 A 3.978 3.978 0 0 0 86.437 5.449 A 6.307 6.307 0 0 0 86.3 6.436 Q 86.271 6.934 86.32 7.393 A 4.297 4.297 0 0 0 86.366 7.716 Q 86.412 7.969 86.486 8.164 L 86.603 8.418 L 86.935 8.379 Q 87.521 8.223 87.999 8.037 A 5.422 5.422 0 0 0 88.81 7.645 A 4.976 4.976 0 0 0 88.888 7.598 A 5.168 5.168 0 0 0 89.669 7.002 A 11.229 11.229 0 0 0 90.05 6.633 A 14.864 14.864 0 0 0 90.45 6.211 A 4.808 4.808 0 0 0 91.086 5.328 A 5.4 5.4 0 0 0 91.163 5.186 Q 91.466 4.609 91.671 3.984 Q 91.876 3.359 91.984 2.744 A 12.447 12.447 0 0 0 92.091 2.002 A 10.231 10.231 0 0 0 92.13 1.582 A 0.568 0.568 0 0 0 92.3 1.49 Q 92.433 1.383 92.457 1.198 A 0.659 0.659 0 0 0 92.462 1.113 L 92.423 0.898 A 0.224 0.224 0 0 1 92.384 0.771 Q 92.384 0.71 92.416 0.64 A 0.479 0.479 0 0 1 92.423 0.625 A 0.849 0.849 0 0 1 92.742 0.19 A 1.272 1.272 0 0 1 92.97 0.059 Q 93.282 0.254 93.527 0.488 A 10.402 10.402 0 0 1 93.931 0.898 A 9.475 9.475 0 0 1 93.986 0.957 A 4.556 4.556 0 0 0 94.03 1.305 Q 94.067 1.521 94.122 1.699 A 8.278 8.278 0 0 0 94.337 2.305 Q 94.435 2.578 94.523 2.842 A 2.354 2.354 0 0 1 94.59 3.092 Q 94.618 3.222 94.637 3.371 A 4.385 4.385 0 0 1 94.65 3.477 A 8.008 8.008 0 0 0 94.515 3.965 A 5.932 5.932 0 0 0 94.425 4.414 A 119.513 119.513 0 0 1 94.317 5.081 A 136.24 136.24 0 0 1 94.279 5.313 A 20.624 20.624 0 0 1 93.98 5.938 Q 93.824 6.252 93.673 6.523 A 17.04 17.04 0 0 0 93.47 6.9 Q 93.373 7.086 93.293 7.251 A 8.301 8.301 0 0 0 93.204 7.441 Q 93.107 7.539 93.038 7.666 A 11.595 11.595 0 0 1 92.93 7.862 A 13.206 13.206 0 0 1 92.892 7.93 A 0.869 0.869 0 0 0 92.867 7.97 Q 92.845 8.006 92.819 8.057 A 3.354 3.354 0 0 0 92.794 8.105 Q 92.751 8.192 92.718 8.236 A 0.234 0.234 0 0 1 92.697 8.262 Z M 26.29 8.203 L 26.212 8.438 Q 26.125 8.525 26.092 8.585 A 0.186 0.186 0 0 0 26.075 8.623 A 0.196 0.196 0 0 1 26.043 8.687 Q 26.018 8.72 25.978 8.75 A 1.043 1.043 0 0 1 25.901 9.055 A 1.29 1.29 0 0 1 25.841 9.18 A 1.337 1.337 0 0 0 25.803 9.286 A 1.058 1.058 0 0 0 25.782 9.365 A 1.527 1.527 0 0 0 25.774 9.406 Q 25.767 9.444 25.764 9.47 A 0.24 0.24 0 0 0 25.763 9.492 A 0.608 0.608 0 0 1 25.758 9.576 Q 25.74 9.701 25.665 9.746 Q 25.685 9.844 25.665 9.951 A 12.338 12.338 0 0 1 25.636 10.107 A 10.734 10.734 0 0 1 25.626 10.156 Q 25.573 10.369 25.584 10.501 A 0.457 0.457 0 0 0 25.587 10.527 Q 25.646 10.605 25.695 10.664 Q 25.739 10.717 25.759 10.802 A 0.521 0.521 0 0 1 25.763 10.82 Q 25.88 10.898 25.939 10.918 A 0.852 0.852 0 0 0 25.994 10.956 Q 26.065 11.001 26.173 11.055 L 26.349 11.25 Q 26.405 11.575 26.339 11.823 A 0.85 0.85 0 0 1 26.173 12.148 Q 25.941 12.443 25.45 12.504 A 2.223 2.223 0 0 1 25.177 12.52 L 24.943 12.52 Q 24.868 12.444 24.839 12.392 A 0.174 0.174 0 0 1 24.825 12.363 Q 24.669 12.305 24.572 12.266 Q 24.486 12.231 24.416 12.137 A 0.62 0.62 0 0 1 24.396 12.109 Q 24.169 12.005 24.02 11.931 A 7.658 7.658 0 0 1 23.986 11.914 L 23.81 11.816 L 23.81 11.582 A 1.247 1.247 0 0 1 23.605 11.191 A 3.454 3.454 0 0 1 23.497 10.762 A 4.238 4.238 0 0 0 23.434 10.512 A 3.672 3.672 0 0 0 23.409 10.43 A 1.174 1.174 0 0 0 23.345 10.267 A 0.937 0.937 0 0 0 23.282 10.156 A 8.587 8.587 0 0 1 23.277 9.86 Q 23.277 8.919 23.497 8.242 Q 23.751 7.461 24.025 6.738 Q 24.181 6.348 24.337 5.947 A 8.259 8.259 0 0 0 24.611 5.117 L 24.786 4.922 A 121.236 121.236 0 0 0 24.852 4.772 Q 24.945 4.558 25.011 4.404 A 21.078 21.078 0 0 1 25.19 3.998 A 21.998 21.998 0 0 1 25.197 3.984 Q 25.255 3.848 25.304 3.721 A 22.636 22.636 0 0 1 25.345 3.615 Q 25.364 3.567 25.381 3.524 A 13.019 13.019 0 0 1 25.392 3.496 Q 25.275 3.496 25.177 3.506 Q 25.079 3.516 
    24.982 3.535 A 3.841 3.841 0 0 1 24.869 3.552 A 2.885 2.885 0 0 1 24.767 3.564 Q 24.669 3.574 24.572 3.574 A 1.531 1.531 0 0 1 24.508 3.573 Q 24.447 3.57 24.407 3.563 A 0.254 0.254 0 0 1 24.376 3.555 A 1.104 1.104 0 0 1 23.963 3.651 A 1.288 1.288 0 0 1 23.907 3.652 L 23.712 3.652 A 0.612 0.612 0 0 1 23.65 3.649 A 0.479 0.479 0 0 1 23.605 3.643 A 0.555 0.555 0 0 0 23.564 3.636 Q 23.543 3.633 23.524 3.633 A 0.322 0.322 0 0 0 23.517 3.633 A 1.061 1.061 0 0 0 23.394 3.639 Q 23.282 3.652 23.204 3.691 L 22.755 3.691 L 22.56 3.691 A 0.405 0.405 0 0 0 22.529 3.693 Q 22.514 3.694 22.498 3.696 A 0.923 0.923 0 0 0 22.462 3.701 A 0.911 0.911 0 0 1 22.424 3.707 Q 22.39 3.711 22.365 3.711 A 1.454 1.454 0 0 1 22.195 3.701 A 1.826 1.826 0 0 1 22.072 3.682 A 0.934 0.934 0 0 1 21.91 3.635 Q 21.838 3.607 21.761 3.567 A 1.569 1.569 0 0 1 21.74 3.555 A 4.692 4.692 0 0 0 21.657 3.448 Q 21.495 3.244 21.431 3.224 A 0.058 0.058 0 0 0 21.427 3.223 L 21.251 2.988 A 1.264 1.264 0 0 0 21.193 2.764 A 3.106 3.106 0 0 1 21.154 2.65 Q 21.135 2.59 21.116 2.524 A 4.78 4.78 0 0 1 21.115 2.52 A 4.976 4.976 0 0 1 21.012 2.237 A 5.865 5.865 0 0 1 20.968 2.1 A 1.457 1.457 0 0 1 20.921 1.886 Q 20.9 1.738 20.9 1.563 Q 20.912 1.464 20.94 1.397 A 0.312 0.312 0 0 1 20.977 1.329 A 4.151 4.151 0 0 0 21.019 1.272 Q 21.051 1.228 21.075 1.191 L 21.134 0.898 L 21.388 0.918 L 21.935 0.918 A 16.804 16.804 0 0 0 23.204 0.869 A 134.046 134.046 0 0 0 24.447 0.769 A 144.891 144.891 0 0 0 24.532 0.762 A 329.113 329.113 0 0 1 25.323 0.684 A 123.293 123.293 0 0 1 25.941 0.625 A 136.826 136.826 0 0 1 26.154 0.605 A 8.4 8.4 0 0 1 26.27 0.355 A 7.263 7.263 0 0 1 26.31 0.273 L 26.505 0.176 Q 26.857 0.156 27.003 0.264 A 2.66 2.66 0 0 1 27.122 0.356 Q 27.192 0.414 27.247 0.469 A 43.689 43.689 0 0 0 28.116 0.381 A 14.59 14.59 0 0 0 29.005 0.254 A 44.119 44.119 0 0 1 30.343 0.078 A 11.636 11.636 0 0 1 31.326 0.005 A 10.3 10.3 0 0 1 31.642 0 A 6.983 6.983 0 0 1 32.097 0.014 A 6.281 6.281 0 0 1 32.169 0.02 A 5.089 5.089 0 0 1 32.442 0.048 A 4.038 4.038 0 0 1 32.638 0.078 L 32.833 0.215 A 0.708 0.708 0 0 0 32.952 0.383 A 0.845 0.845 0 0 0 32.999 0.43 Q 33.107 0.527 33.224 0.625 A 4.04 4.04 0 0 1 33.488 0.891 A 5.181 5.181 0 0 1 33.693 1.133 A 0.799 0.799 0 0 1 33.835 1.419 Q 33.894 1.627 33.876 1.909 A 2.32 2.32 0 0 1 33.868 1.992 A 2.957 2.957 0 0 1 33.813 2.073 Q 33.722 2.2 33.663 2.247 A 0.171 0.171 0 0 1 33.634 2.266 L 33.458 2.5 L 33.263 2.48 A 0.816 0.816 0 0 0 33.134 2.49 A 0.663 0.663 0 0 0 33.048 2.51 A 2.324 2.324 0 0 0 32.853 2.578 A 1.626 1.626 0 0 1 32.697 2.646 A 1.009 1.009 0 0 1 32.604 2.676 A 1.317 1.317 0 0 1 32.521 2.695 A 5.239 5.239 0 0 1 32.418 2.694 Q 32.315 2.692 32.242 2.686 A 1.491 1.491 0 0 1 32.238 2.686 A 2.407 2.407 0 0 0 32.071 2.676 A 2.726 2.726 0 0 0 32.013 2.676 A 7.976 7.976 0 0 0 31.439 2.697 A 10.072 10.072 0 0 0 30.958 2.744 Q 30.392 2.813 29.845 2.891 A 19.012 19.012 0 0 1 29.276 2.968 A 16.765 16.765 0 0 1 29.093 2.988 A 18.862 18.862 0 0 1 28.749 3.022 A 13.706 13.706 0 0 1 28.439 3.047 A 11.833 11.833 0 0 1 28.311 3.428 Q 28.238 3.632 28.165 3.809 A 9.693 9.693 0 0 1 27.872 4.453 A 8.679 8.679 0 0 0 27.589 5.127 A 11.439 11.439 0 0 0 27.419 5.62 A 13.52 13.52 0 0 0 27.345 5.859 A 7.272 7.272 0 0 0 27.177 6.142 Q 27.09 6.295 27.023 6.436 A 2.646 2.646 0 0 0 26.889 6.773 A 3.338 3.338 0 0 0 26.818 7.031 A 2.263 2.263 0 0 0 26.546 7.458 A 1.999 1.999 0 0 0 26.466 7.646 A 7.898 7.898 0 0 0 26.386 7.876 Q 26.349 7.989 26.321 8.088 A 3.785 3.785 0 0 0 26.29 8.203 Z M 80.783 12.115 A 3.333 3.333 0 0 0 80.919 12.109 Q 81.251 11.855 81.583 11.611 Q 81.915 11.367 82.189 11.074 Q 82.247 10.742 82.15 10.518 A 1.662 1.662 0 0 0 81.896 10.107 A 3.476 3.476 0 0 0 81.554 9.756 A 2.102 2.102 0 0 1 81.232 9.395 A 54.435 54.435 0 0 1 78.312 9.277 A 13.636 13.636 0 0 1 77.772 9.23 A 11.991 11.991 0 0 1 75.568 8.789 A 5.482 5.482 0 0 1 75.353 8.35 A 1.684 1.684 0 0 1 75.27 8.108 A 2.239 2.239 0 0 1 75.216 7.832 A 4.931 4.931 0 0 1 75.421 7.529 A 0.398 0.398 0 0 0 75.462 7.46 Q 75.524 7.324 75.509 7.109 Q 75.822 6.816 76.105 6.514 A 8.62 8.62 0 0 1 76.71 5.928 A 5.164 5.164 0 0 1 77.394 5.42 A 2.973 2.973 0 0 1 77.731 5.24 A 3.655 3.655 0 0 1 78.224 5.059 A 3.05 3.05 0 0 1 78.754 4.593 A 3.614 3.614 0 0 1 79.581 4.17 A 19.582 19.582 0 0 1 80.01 4.019 A 22.577 22.577 0 0 1 81.349 3.613 A 1.586 1.586 0 0 0 81.756 3.43 A 2.018 2.018 0 0 0 82.111 3.145 A 2.315 2.315 0 0 0 82.309 2.919 A 1.824 1.824 0 0 0 82.599 2.383 A 1.343 1.343 0 0 0 82.621 2.311 Q 82.663 2.157 82.663 2.006 A 1.083 1.083 0 0 0 82.579 1.592 Q 82.467 1.317 82.131 1.149 A 1.837 1.837 0 0 0 81.837 1.035 A 0.631 0.631 0 0 1 81.838 1.008 Q 81.842 0.912 81.876 0.869 A 0.059 0.059 0 0 0 81.889 0.831 Q 81.889 0.798 81.859 0.753 A 0.411 0.411 0 0 0 81.837 0.723 A 1.349 1.349 0 0 1 81.813 0.72 Q 81.597 0.698 81.495 0.615 A 0.312 0.312 0 0 0 81.412 0.566 Q 81.332 0.534 81.232 0.547 A 0.512 0.512 0 0 0 81.235 0.54 Q 81.249 0.511 81.272 0.455 A 4.848 4.848 0 0 0 81.29 0.41 A 0.241 0.241 0 0 0 81.291 0.409 Q 81.323 0.327 81.257 0.315 A 0.143 0.143 0 0 0 81.232 0.313 A 0.349 0.349 0 0 1 81.217 0.345 Q 81.184 0.408 81.144 0.4 A 0.112 0.112 0 0 1 81.138 0.399 Q 81.105 0.391 81.069 0.361 A 0.401 0.401 0 0 1 81.036 0.332 A 2.052 2.052 0 0 0 81.006 0.303 A 2.324 2.324 0 0 0 80.909 0.215 Q 80.853 0.166 80.776 0.171 A 0.251 0.251 0 0 0 80.743 0.176 A 3.599 3.599 0 0 1 80.664 0.204 A 4.114 4.114 0 0 1 80.411 0.283 A 0.34 0.34 0 0 1 80.378 0.291 Q 80.266 0.31 80.189 0.239 A 0.304 0.304 0 0 1 80.138 0.176 A 0.874 0.874 0 0 1 79.816 0.488 A 6.641 6.641 0 0 1 79.386 0.713 A 27.892 27.892 0 0 0 78.947 0.928 A 1.223 1.223 0 0 0 78.575 1.211 Q 78.165 1.309 77.853 1.484 Q 77.54 1.66 77.247 1.865 Q 76.954 2.07 76.652 2.256 A 2.136 2.136 0 0 1 76.333 2.415 A 2.772 2.772 0 0 1 75.939 2.539 A 1.417 1.417 0 0 1 75.909 2.577 A 1.247 1.247 0 0 1 75.675 2.803 L 75.382 3.018 A 2.358 2.358 0 0 0 75.109 3.252 Q 75.023 3.337 74.881 3.418 A 2.061 2.061 0 0 1 74.728 3.496 Q 74.161 4.121 73.624 4.756 A 4.142 4.142 0 0 0 73.252 5.272 A 4.838 4.838 0 0 0 72.794 6.27 A 8.886 8.886 0 0 0 72.789 6.566 Q 72.789 6.622 72.79 6.678 A 10.184 10.184 0 0 0 72.833 7.49 Q 72.892 8.125 73.068 8.73 Q 73.243 9.336 73.536 9.873 Q 73.829 10.41 74.298 10.781 A 1.666 1.666 0 0 1 74.337 10.791 Q 74.469 10.825 74.579 10.878 A 0.951 0.951 0 0 1 74.825 11.045 A 6.979 6.979 0 0 1 74.899 11.116 A 7.81 7.81 0 0 1 75.216 11.445 Q 76.115 11.758 77.189 11.973 A 14.53 14.53 0 0 0 77.256 11.986 A 13.27 13.27 0 0 0 79.298 12.227 A 1.65 1.65 0 0 1 79.983 12.083 A 1.941 1.941 0 0 1 80.148 12.09 A 8.81 8.81 0 0 0 80.232 12.097 Q 80.543 12.12 80.783 12.115 Z M 5.411 11.738 L 4.962 11.855 Q 4.415 12.031 3.771 12.207 A 4.88 4.88 0 0 1 2.482 12.383 A 3.164 3.164 0 0 1 1.859 12.325 Q 1.482 12.249 1.188 12.074 A 1.772 1.772 0 0 1 0.939 11.895 Q 0.841 11.68 0.763 11.602 A 1.449 1.449 0 0 1 0.656 11.436 A 0.441 0.441 0 0 1 0.624 11.364 Q 0.611 11.325 0.602 11.279 A 1.094 1.094 0 0 1 0.587 11.191 A 2.091 2.091 0 0 1 0.245 10.629 A 2.394 2.394 0 0 1 0.216 10.557 A 3.263 3.263 0 0 1 0.031 9.814 A 3.77 3.77 0 0 1 0 9.335 A 3.898 3.898 0 0 1 0.011 9.043 A 3.904 3.904 0 0 1 0.109 8.412 A 3.533 3.533 0 0 1 0.138 8.301 A 0.511 0.511 0 0 0 0.176 8.199 A 0.44 0.44 0 0 0 0.187 8.145 A 2.039 2.039 0 0 1 0.198 8.067 Q 0.205 8.026 0.214 7.982 A 3.359 3.359 0 0 1 0.216 7.969 A 13.514 13.514 0 0 1 0.382 7.363 A 1.843 1.843 0 0 1 0.503 7.058 A 1.492 1.492 0 0 1 0.626 6.855 Q 0.563 6.714 0.602 6.547 A 0.7 0.7 0 0 1 0.626 6.465 A 2.916 2.916 0 0 1 0.732 6.212 A 2.406 2.406 0 0 1 0.802 6.074 A 217.236 217.236 0 0 0 0.995 5.549 Q 1.07 5.344 1.136 5.16 A 106.182 106.182 0 0 0 1.261 4.814 A 47.652 47.652 0 0 1 1.642 3.789 Q 1.974 2.91 2.267 2.051 A 18.548 18.548 0 0 0 2.61 0.923 A 22.187 22.187 0 0 0 2.794 0.195 Q 2.948 0.099 3.026 0.06 A 0.903 0.903 0 0 1 3.029 0.059 A 4.318 4.318 0 0 1 3.085 0.04 Q 3.16 0.016 3.216 0.002 A 1.425 1.425 0 0 1 3.224 0 Q 3.575 0.176 4.044 0.342 A 3.895 3.895 0 0 0 4.322 0.429 Q 4.462 0.467 4.584 0.487 A 1.534 1.534 0 0 0 4.825 0.508 A 2.598 2.598 0 0 1 4.888 0.548 Q 4.977 0.607 5.011 0.644 A 0.168 0.168 0 0 1 5.021 0.654 A 1.142 1.142 0 0 0 5.07 0.712 A 0.948 0.948 0 0 0 5.099 0.742 A 3.913 3.913 0 0 1 5.399 1.145 A 3.473 3.473 0 0 1 5.47 1.26 Q 5.61 1.496 5.577 1.867 A 1.844 1.844 0 0 1 5.568 1.953 Q 5.45 2.129 5.392 2.129 A 7.293 7.293 0 0 1 5.317 2.405 Q 5.278 2.541 5.237 2.658 A 3.762 3.762 0 0 1 5.187 2.793 A 19.347 19.347 0 0 1 4.962 3.34 A 11.379 11.379 0 0 0 4.708 3.926 Q 4.591 4.219 4.513 4.648 Q 4.435 4.746 4.406 4.824 A 7.272 7.272 0 0 1 4.376 4.902 Q 4.36 4.942 4.342 4.987 A 11.697 11.697 0 0 1 4.337 5 A 4.546 4.546 0 0 1 4.285 5.126 A 5.396 5.396 0 0 1 4.249 5.205 A 0.5 0.5 0 0 1 4.11 5.385 A 0.58 0.58 0 0 1 4.103 5.391 A 4.771 4.771 0 0 1 4.054 5.717 Q 4.001 6.006 3.917 6.211 A 25.571 25.571 0 0 1 3.654 6.836 A 15.945 15.945 0 0 0 3.234 7.969 Q 3.048 8.535 3.009 9.258 A 0.578 0.578 0 0 1 3.103 9.229 A 0.439 0.439 0 0 1 3.195 9.219 L 3.361 9.219 A 1.291 1.291 0 0 1 3.513 9.228 Q 3.587 9.237 3.669 9.254 A 2.479 2.479 0 0 1 3.771 9.277 Q 4.357 8.965 5.05 8.906 Q 5.743 8.848 6.427 8.828 L 6.974 8.828 Q 7.247 8.828 7.482 8.789 Q 7.657 8.887 7.706 8.896 A 0.374 0.374 0 0 0 7.738 8.901 Q 7.772 8.905 7.821 8.906 A 1.716 1.716 0 0 0 7.853 8.906 A 1.624 1.624 0 0 1 7.95 8.909 Q 8 8.912 8.043 8.918 A 0.826 0.826 0 0 1 8.087 8.926 Q 8.322 9.141 8.536 9.238 A 4.6 4.6 0 0 0 8.986 9.414 Q 9.2 9.492 9.406 9.58 A 1.648 1.648 0 0 1 9.683 9.733 A 1.973 1.973 0 0 1 9.806 9.824 L 9.943 10.664 A 1.555 1.555 0 0 1 9.983 10.719 Q 10.073 10.845 10.061 10.895 A 0.043 0.043 0 0 1 10.06 10.898 A 0.498 0.498 0 0 1 10.053 10.986 Q 10.044 11.035 10.025 11.072 A 0.232 0.232 0 0 1 9.982 11.133 L 10.021 11.348 A 2.547 2.547 0 0 0 9.886 11.378 Q 9.701 11.426 9.62 11.484 A 1.724 1.724 0 0 0 9.415 11.66 A 4.68 4.68 0 0 1 9.343 11.669 Q 9.275 11.676 9.23 11.679 A 0.741 0.741 0 0 1 9.191 11.68 L 9.064 11.68 A 1.941 1.941 0 0 0 8.842 11.693 Q 8.644 11.716 8.4 11.777 A 3.436 3.436 0 0 0 7.306 
    11.602 A 5.235 5.235 0 0 0 6.973 11.613 A 5.995 5.995 0 0 0 6.857 11.621 L 6.388 11.66 A 5.651 5.651 0 0 1 5.909 11.719 A 6.244 6.244 0 0 1 5.411 11.738 Z M 56.759 6.963 A 1.439 1.439 0 0 0 56.768 6.929 Q 56.783 6.872 56.798 6.797 Q 56.74 5.742 56.329 4.98 A 5.649 5.649 0 0 0 55.314 3.623 Q 54.708 3.027 53.966 2.529 A 51.118 51.118 0 0 1 52.521 1.523 A 8.06 8.06 0 0 1 51.873 1.346 A 9.491 9.491 0 0 1 50.616 0.84 A 14.841 14.841 0 0 0 48.595 0.039 A 1.122 1.122 0 0 0 48.497 0.233 A 1.33 1.33 0 0 0 48.419 0.537 A 1.808 1.808 0 0 1 48.374 0.76 A 2.168 2.168 0 0 1 48.243 1.113 A 8.676 8.676 0 0 0 48.344 1.465 A 6.364 6.364 0 0 0 48.448 1.777 A 1.91 1.91 0 0 1 48.462 1.815 A 1.68 1.68 0 0 1 48.556 2.363 L 48.292 2.363 A 0.171 0.171 0 0 0 48.266 2.365 Q 48.175 2.379 48.183 2.499 A 0.352 0.352 0 0 0 48.185 2.52 A 0.073 0.073 0 0 1 48.204 2.553 Q 48.211 2.581 48.202 2.622 A 0.295 0.295 0 0 1 48.195 2.646 Q 48.165 2.734 48.146 2.93 A 9.086 9.086 0 0 1 48.278 3.469 A 10.655 10.655 0 0 1 48.468 4.736 A 10.04 10.04 0 0 1 48.51 5.646 A 9.597 9.597 0 0 1 48.458 6.641 A 0.369 0.369 0 0 0 48.337 6.714 A 0.361 0.361 0 0 0 48.243 6.855 A 4.353 4.353 0 0 1 48.048 7.852 Q 47.892 8.34 47.736 8.848 A 1.172 1.172 0 0 1 47.729 8.974 Q 47.72 9.056 47.699 9.123 A 0.49 0.49 0 0 1 47.628 9.268 A 0.946 0.946 0 0 0 47.528 9.443 A 1.293 1.293 0 0 0 47.462 9.629 Q 47.501 10.098 47.55 10.537 A 4.155 4.155 0 0 0 47.598 10.856 A 3.337 3.337 0 0 0 47.726 11.338 Q 47.853 11.699 48.097 11.973 Q 48.341 12.246 48.81 12.363 Q 49.904 11.855 51.056 11.416 A 23.523 23.523 0 0 0 53.273 10.439 A 11.447 11.447 0 0 0 55.226 9.199 A 5.885 5.885 0 0 0 56.7 7.461 L 56.7 7.236 Q 56.7 7.184 56.707 7.142 A 0.341 0.341 0 0 1 56.72 7.09 Q 56.74 7.031 56.759 6.963 Z M 61.278 10.905 A 2.825 2.825 0 0 0 61.251 10.703 A 8.212 8.212 0 0 1 61.114 9.217 A 7.853 7.853 0 0 1 61.124 8.809 A 12.095 12.095 0 0 1 61.368 6.943 A 17.21 17.21 0 0 1 61.866 5.098 Q 62.169 4.18 62.521 3.242 A 0.349 0.349 0 0 1 62.355 3.113 A 0.496 0.496 0 0 1 62.296 2.998 A 1.409 1.409 0 0 1 62.249 2.841 A 1.713 1.713 0 0 1 62.208 2.588 A 5.297 5.297 0 0 1 62.189 2.129 L 62.189 1.738 A 0.875 0.875 0 0 1 62.077 1.672 A 0.654 0.654 0 0 1 61.857 1.416 Q 61.759 1.211 61.71 0.977 L 61.613 0.508 A 1.01 1.01 0 0 0 61.407 0.078 A 1.685 1.685 0 0 0 61.353 0.079 Q 61.238 0.083 61.136 0.103 A 0.952 0.952 0 0 0 60.909 0.176 A 2.321 2.321 0 0 0 60.834 0.213 A 2.033 2.033 0 0 0 60.538 0.4 A 2.978 2.978 0 0 0 60.528 0.408 A 3.246 3.246 0 0 0 60.216 0.684 A 2.178 2.178 0 0 1 59.884 0.957 A 1.185 1.185 0 0 1 59.892 1.096 A 1.126 1.126 0 0 1 59.777 1.592 A 9.662 9.662 0 0 1 59.711 1.726 Q 59.641 1.864 59.584 1.964 A 2.504 2.504 0 0 1 59.532 2.051 A 0.948 0.948 0 0 0 59.5 2.122 Q 59.44 2.272 59.464 2.383 Q 59.486 2.485 59.459 2.632 A 1.304 1.304 0 0 1 59.435 2.734 Q 59.422 2.798 59.376 2.833 A 0.184 0.184 0 0 1 59.318 2.861 A 0.289 0.289 0 0 0 59.316 2.862 Q 59.22 2.891 59.2 2.969 A 0.37 0.37 0 0 0 59.186 3.071 Q 59.186 3.162 59.23 3.262 Q 59.298 3.418 59.259 3.594 A 10.755 10.755 0 0 1 58.839 5.137 A 8.463 8.463 0 0 0 58.831 5.16 A 9.164 9.164 0 0 0 58.439 6.699 A 5.482 5.482 0 0 0 58.421 6.848 A 6.243 6.243 0 0 0 58.39 7.314 Q 58.38 7.637 58.37 7.949 A 9.451 9.451 0 0 1 58.331 8.564 A 2.176 2.176 0 0 1 58.293 8.816 A 1.651 1.651 0 0 1 58.204 9.102 Q 58.248 9.288 58.302 9.506 A 70.896 70.896 0 0 0 58.39 9.863 A 15.942 15.942 0 0 0 58.634 10.732 Q 58.771 11.172 58.927 11.582 Q 59.015 11.813 59.115 12 A 2.419 2.419 0 0 0 59.279 12.266 A 3.074 3.074 0 0 0 59.345 12.276 Q 59.578 12.31 59.828 12.31 A 3.862 3.862 0 0 0 60.021 12.305 A 1.869 1.869 0 0 0 60.234 12.282 A 1.503 1.503 0 0 0 60.714 12.119 A 1.08 1.08 0 0 0 60.941 11.953 A 1.188 1.188 0 0 0 61.183 11.621 A 0.817 0.817 0 0 0 61.207 11.569 Q 61.315 11.308 61.278 10.905 Z M 52.169 7.871 Q 52.579 7.715 52.98 7.539 A 5.093 5.093 0 0 0 53.636 7.194 A 4.632 4.632 0 0 0 53.722 7.139 A 3.368 3.368 0 0 0 54.337 6.621 A 2.313 2.313 0 0 0 54.692 6.116 A 2.77 2.77 0 0 0 54.786 5.918 Q 54.669 5.684 54.474 5.498 Q 54.279 5.313 54.083 5.146 A 9.497 9.497 0 0 1 53.702 4.805 A 1.344 1.344 0 0 1 53.446 4.467 A 1.583 1.583 0 0 1 53.4 4.375 Q 53.146 4.336 52.95 4.229 A 19.925 19.925 0 0 1 52.57 4.014 A 5.462 5.462 0 0 0 52.205 3.821 A 5.937 5.937 0 0 0 52.179 3.809 A 1.172 1.172 0 0 0 51.927 3.723 A 1.569 1.569 0 0 0 51.7 3.691 A 5.943 5.943 0 0 0 51.366 3.536 Q 51.205 3.468 51.059 3.419 A 3.126 3.126 0 0 0 50.929 3.379 A 2.025 2.025 0 0 1 50.723 3.309 Q 50.621 3.267 50.54 3.218 A 0.862 0.862 0 0 1 50.411 3.125 Q 50.315 3.125 50.248 3.154 A 0.251 0.251 0 0 0 50.197 3.184 A 14.363 14.363 0 0 1 50.394 4.034 A 11.486 11.486 0 0 1 50.49 4.58 A 9.851 9.851 0 0 1 50.597 5.889 A 9.766 9.766 0 0 1 50.598 6.034 A 10.495 10.495 0 0 1 50.529 7.227 A 24.039 24.039 0 0 1 50.436 7.939 A 30.833 30.833 0 0 1 50.314 8.711 A 1.327 1.327 0 0 0 50.579 8.658 A 1.172 1.172 0 0 0 50.675 8.623 A 7.371 7.371 0 0 0 51.007 8.477 A 4.313 4.313 0 0 1 51.301 8.352 A 4.828 4.828 0 0 1 51.359 8.33 A 1.339 1.339 0 0 1 51.548 8.277 Q 51.663 8.253 51.798 8.242 A 0.533 0.533 0 0 1 51.964 8.047 A 1.724 1.724 0 0 0 52.169 7.871 Z"/></g></svg>